<svg xmlns="http://www.w3.org/2000/svg"
shape-rendering="geometricPrecision"
viewBox="0 150 699 400"><rect fill="#FFFFFF" />
  <metadata>null</metadata>

<path d="
M 31.392 265.542
C 33.072 262.455 36.128 262.849 39.204 262.823
C 45.637 262.768 52.072 262.779 58.506 262.785
C 82.339 262.809 106.173 262.819 130.006 262.767
C 133.118 262.76 136.23 262.768 139.342 262.765
C 140.816 262.764 142.638 262.545 144.05 263.042
C 147.74 264.342 147.717 270.49 145.059 272.689
C 142.644 273.676 139.061 273.13 136.499 273.155
C 130.5 273.215 124.503 273.237 118.504 273.263
C 97.505 273.355 76.504 273.27 55.505 273.285
C 50.594 273.289 45.683 273.319 40.771 273.31
C 38.693 273.307 35.686 273.776 33.74 272.925
C 31.231 271.829 30.678 267.833 31.392 265.542 Z"
opacity="1" fill="rgb(34,102,162)" fill-rule="evenodd" />
<path d="
M 31.481 297.113
C 31.76 294.914 32.091 292.746 32.959 290.693
C 33.56 289.272 34.297 287.946 35.252 286.727
C 40.874 279.556 49.401 280.435 57.564 280.445
C 69.962 280.459 82.368 280.57 94.766 280.425
C 99.866 280.365 105.458 281.196 110.495 280.298
C 109.873 282.27 109.182 284.235 108.754 286.261
C 107.075 286.551 105.207 286.293 103.503 286.289
C 100.17 286.282 96.836 286.3 93.503 286.297
C 83.504 286.287 73.506 286.319 63.507 286.318
C 58.032 286.318 52.289 285.765 46.85 286.486
C 39.979 287.396 37.332 293.206 37.123 299.497
C 37.083 300.703 36.597 303.201 37.174 304.243
C 52.908 303.694 68.761 304.221 84.507 304.198
C 89.006 304.191 93.506 304.267 98.005 304.215
C 99.391 304.199 102.026 303.586 103.26 304.131
C 102.824 305.818 102.522 308.613 101.556 310.032
C 96.597 310.425 91.478 310.034 86.501 310.058
C 76.002 310.11 65.502 310.179 55.003 310.171
C 49.294 310.167 42.951 309.39 37.318 310.293
C 37.112 317.69 37.31 325.102 37.263 332.501
C 37.247 335.111 37.521 337.842 37.294 340.436
C 36.082 341.191 34.645 341.552 33.456 342.369
C 33.142 342.585 31.549 344.028 31.428 343.625
C 32.268 328.179 30.273 312.552 31.481 297.113 Z"
opacity="1" fill="rgb(11,20,45)" fill-rule="evenodd" />
<path d="
M 31.513 362.122
C 31.849 358.99 31.567 355.849 31.519 352.715
C 40.66 346.924 50.969 342.512 60.587 337.552
C 66.118 334.699 71.649 331.85 77.2 329.036
C 79.498 327.87 81.661 326.454 84.054 325.497
C 85.095 326.684 85.512 328.442 86.136 329.875
C 87.05 331.971 88.096 334 89.14 336.033
C 89.413 336.564 91.055 338.77 90.81 339.173
C 86.759 340.665 82.916 342.974 79.081 344.95
C 73.248 347.955 67.291 350.726 61.511 353.834
C 59.398 354.97 57.267 356.121 55.081 357.112
C 54.095 357.559 52.548 358.053 52.084 359.006
C 61.834 363.687 71.549 368.525 81.179 373.462
C 83.593 374.7 86.063 375.831 88.469 377.083
C 89.049 377.385 90.621 377.84 90.889 378.44
C 88.695 382.813 86.462 387.296 84.683 391.862
C 82.063 390.945 79.63 389.264 77.11 388.088
C 69.979 384.758 63.017 381.049 55.939 377.604
C 50.898 375.151 45.93 372.561 40.913 370.059
C 37.835 368.525 34.211 367.151 31.543 364.948
C 31.263 364.045 31.452 363.052 31.513 362.122 Z"
opacity="1" fill="rgb(21,55,95)" fill-rule="evenodd" />
<path d="
M 31.331 374.01
C 33.185 374.414 35.798 376.385 37.419 377.475
C 37.727 381.665 37.325 385.925 37.468 390.128
C 37.553 392.6 37.706 395.201 39.095 397.342
C 43.018 403.388 49.67 402.569 56.005 402.552
C 64.338 402.53 72.671 402.516 81.004 402.514
C 85.701 402.513 90.601 402.159 95.262 402.727
C 95.435 403.144 95.077 403.695 94.932 404.107
C 94.451 405.478 94.075 406.899 93.625 408.282
C 92.624 408.81 90.393 408.415 89.261 408.411
C 85.843 408.4 82.424 408.424 79.006 408.426
C 70.672 408.43 62.339 408.432 54.006 408.441
C 46.992 408.449 39.819 408.248 35.233 402.019
C 29.402 394.1 31.727 383.203 31.331 374.01 Z"
opacity="1" fill="rgb(9,21,45)" fill-rule="evenodd" />
<path d="
M 46.371 295.071
C 47.449 289.942 55.776 291.319 54.717 296.325
C 53.611 301.558 45.293 300.201 46.371 295.071 Z"
opacity="1" fill="rgb(6,11,42)" fill-rule="evenodd" />
<path d="
M 60.413 295.074
C 61.547 290.093 69.663 291.197 68.63 296.346
C 67.569 301.638 59.256 300.148 60.413 295.074 Z"
opacity="1" fill="rgb(8,14,42)" fill-rule="evenodd" />
<path d="
M 74.406 294.553
C 76.091 289.503 83.7 292.173 82.001 297.244
C 80.314 302.282 72.864 299.178 74.406 294.553 Z"
opacity="1" fill="rgb(5,14,43)" fill-rule="evenodd" />
<path d="
M 93.315 436.26
C 95.992 429.209 97.959 421.759 100.073 414.52
C 103.136 404.033 106.729 393.693 109.721 383.185
C 111.234 377.87 112.827 372.588 114.464 367.311
C 115.202 364.934 115.543 362.169 116.62 359.94
C 119.746 359.762 122.873 360.049 126 360.003
C 128.443 359.968 131.036 359.626 133.462 359.944
C 128.711 371.06 125.999 383.306 122.372 394.827
C 119.339 404.459 116.451 414.145 113.614 423.834
C 112.409 427.952 110.77 431.973 109.755 436.145
C 106.13 436.592 102.163 436.019 98.494 436.112
C 97.064 436.148 94.622 436.749 93.315 436.26 Z"
opacity="1" fill="rgb(12,29,58)" fill-rule="evenodd" />
<path d="
M 97.327 351.711
C 100.178 343.847 102.237 335.576 104.576 327.545
C 106.932 319.454 109.633 311.458 111.908 303.343
C 113.305 298.361 114.814 293.411 116.197 288.424
C 116.874 285.984 117.378 282.58 118.766 280.463
C 124.237 280.498 129.745 280.264 135.212 280.424
C 135.383 281.51 133.986 283.75 133.639 284.882
C 132.406 288.915 131.019 292.911 129.881 296.972
C 126.162 310.249 122.031 323.447 118.013 336.637
C 116.901 340.288 115.831 343.948 114.697 347.592
C 114.306 348.845 114.167 350.918 113.238 351.872
C 108.002 352.091 102.457 351.225 97.28 352.03
C 97.296 351.924 97.312 351.817 97.327 351.711 Z"
opacity="1" fill="rgb(36,94,151)" fill-rule="evenodd" />
<path d="
M 118.916 434.543
C 119.472 432.956 119.83 431.321 120.351 429.726
C 123.136 429.25 126.183 429.568 129.005 429.562
C 134.84 429.549 140.675 429.596 146.509 429.606
C 163.032 429.634 179.552 429.405 196.071 429.757
C 196.02 431.421 195.334 434.689 196.146 436.169
C 194.438 435.402 191.346 435.934 189.505 435.936
C 184.171 435.942 178.838 435.945 173.505 435.947
C 155.294 435.953 137.021 435.518 118.819 435.935
C 118.667 435.376 118.776 435.092 118.916 434.543 Z"
opacity="1" fill="rgb(9,20,47)" fill-rule="evenodd" />
<path d="
M 122.898 421.044
C 123.421 419.28 123.875 417.497 124.353 415.721
C 129.791 415.177 135.532 415.598 141.004 415.563
C 152.528 415.49 164.057 415.56 175.579 415.477
C 175.565 417.148 175.472 418.834 175.466 420.507
C 175.465 420.992 175.716 421.537 175.294 421.902
C 167.838 421.168 159.996 421.804 152.505 421.859
C 142.618 421.932 132.632 421.558 122.765 422.096
C 122.823 421.389 122.779 421.74 122.898 421.044 Z"
opacity="1" fill="rgb(7,17,39)" fill-rule="evenodd" />
<path d="
M 126.897 406.538
C 127.388 405.172 127.61 403.673 128.491 402.502
C 142.614 402.053 156.806 402.482 170.935 402.502
C 176.739 402.51 183.895 403.777 188.031 398.664
C 192.61 393.004 190.477 384.061 190.692 377.36
C 192.648 376.185 194.684 375.109 196.695 374.032
C 197.051 378.364 196.686 382.902 196.657 387.257
C 196.636 390.54 196.597 393.697 195.608 396.864
C 195.141 398.359 194.335 399.804 193.469 401.101
C 188.403 408.681 180.442 408.401 172.316 408.457
C 165.713 408.502 159.109 408.406 152.506 408.411
C 146.339 408.415 140.173 408.451 134.006 408.422
C 131.978 408.412 128.378 409.012 126.643 407.941
C 126.697 407.45 126.764 407.014 126.897 406.538 Z"
opacity="1" fill="rgb(9,19,46)" fill-rule="evenodd" />
<path d="
M 134.51 309.073
C 135.027 307.484 135.395 305.852 135.932 304.271
C 140.504 303.502 145.856 304.239 150.508 304.233
C 159.342 304.223 168.175 304.228 177.008 304.237
C 181.564 304.241 186.247 304.554 190.789 304.17
C 191.089 302.387 190.832 300.319 190.797 298.51
C 190.707 293.838 188.232 288.618 183.517 286.987
C 180.464 285.931 177.004 286.22 173.823 286.22
C 168.532 286.22 163.24 286.265 157.949 286.31
C 152.571 286.356 146.664 285.665 141.349 286.451
C 141.418 284.661 142.393 282.535 142.858 280.791
C 144.368 280.028 146.833 280.448 148.506 280.445
C 153.006 280.436 157.507 280.458 162.007 280.452
C 166.441 280.446 170.874 280.439 175.308 280.44
C 179.132 280.441 183.015 280.355 186.55 282.037
C 195.776 286.429 196.677 295.727 196.606 304.754
C 196.504 317.75 196.342 330.833 196.808 343.819
C 196.415 343.905 195.841 343.209 195.499 342.993
C 194.108 342.113 192.596 341.431 191.118 340.716
C 190.686 339.975 190.854 339.001 190.846 338.167
C 190.827 336.113 190.83 334.059 190.823 332.004
C 190.798 324.742 190.973 317.445 190.783 310.188
C 171.933 310.902 153.006 309.535 134.16 310.214
C 134.389 309.469 134.272 309.849 134.51 309.073 Z"
opacity="1" fill="rgb(9,19,45)" fill-rule="evenodd" />
<path d="
M 138.361 339.055
C 140.067 334.588 142.012 330.179 143.889 325.783
C 145.847 326.382 147.767 327.601 149.608 328.503
C 153.812 330.562 157.95 332.756 162.159 334.804
C 169.249 338.256 176.2 342.01 183.197 345.649
C 187.706 347.995 192.421 350.111 196.721 352.83
C 196.412 356.796 197.103 360.855 196.712 364.773
C 183.513 371.627 170.341 378.546 157.13 385.383
C 153.936 387.036 150.708 388.624 147.478 390.205
C 146.732 390.57 144.748 392.022 144.014 391.686
C 143.076 389.052 141.734 386.553 140.601 384
C 139.754 382.089 139.017 379.922 137.734 378.273
C 146.006 373.795 154.676 369.993 163.125 365.855
C 167.788 363.571 172.325 361.021 177.049 358.883
C 176.782 358.31 175.483 358.07 174.9 357.71
C 172.481 356.214 169.684 355.1 167.139 353.814
C 160.269 350.34 153.318 346.973 146.384 343.624
C 143.673 342.314 140.731 341.207 138.172 339.617
C 138.235 339.43 138.298 339.242 138.361 339.055 Z"
opacity="1" fill="rgb(20,52,91)" fill-rule="evenodd" />
<path d="
M 184.306 415.784
C 187.057 415.716 189.805 415.711 192.558 415.72
C 193.556 415.724 195.057 415.4 195.949 415.846
C 195.786 417.793 196.081 419.754 196.2 421.69
C 192.336 421.154 187.993 422.459 184.203 421.663
C 184.258 419.704 184.237 417.745 184.306 415.784 Z"
opacity="1" fill="rgb(22,50,93)" fill-rule="evenodd" />
<path d="
M 211.686 359.796
C 214.472 359.665 217.364 360.05 220.126 359.666
C 222.274 365.489 223.989 371.493 225.846 377.413
C 226.888 380.735 228.374 384.007 229.091 387.418
C 229.698 387.246 229.758 385.927 229.866 385.424
C 230.215 383.804 231.001 382.183 231.552 380.619
C 232.878 376.855 234.317 373.126 235.554 369.33
C 236.583 366.174 237.41 362.718 238.824 359.724
C 240.922 359.774 243.134 359.93 245.219 359.687
C 246.17 361.269 246.415 363.638 247.088 365.385
C 249.038 370.448 250.532 375.692 252.497 380.75
C 253.073 382.233 253.602 383.791 254.041 385.319
C 254.253 386.056 254.329 387.148 254.865 387.698
C 258.329 378.611 260.954 369.046 263.841 359.755
C 266.345 359.748 269.6 359.169 272.005 359.859
C 269.413 367.225 267.037 374.67 264.434 382.035
C 262.363 387.897 259.977 393.725 258.227 399.69
C 256.307 400.307 253.602 399.65 251.556 399.884
C 250.107 397.912 249.499 394.447 248.737 392.109
C 247.257 387.568 245.697 383.012 243.951 378.568
C 243.305 376.923 243.082 374.643 241.931 373.307
C 240.927 377.148 239.277 380.828 237.887 384.54
C 235.988 389.613 234.376 394.784 232.286 399.784
C 230.105 400.116 227.807 399.672 225.603 399.925
C 224.274 397.221 223.661 394.043 222.632 391.205
C 218.854 380.788 215.615 370.15 211.686 359.796 Z"
opacity="1" fill="rgb(9,19,47)" fill-rule="evenodd" />
<path d="
M 217.615 308.759
C 218.962 308.831 220.376 308.755 221.724 308.691
C 223.825 314.771 225.7 320.943 227.731 327.048
C 228.233 328.559 228.935 330.009 229.298 331.563
C 229.398 331.989 229.39 332.849 229.81 333.016
C 230.629 331.814 230.828 329.764 231.328 328.377
C 232.896 324.027 234.428 319.688 235.815 315.274
C 236.448 313.262 236.774 310.679 237.893 308.885
C 238.954 308.877 240.424 308.508 241.413 308.871
C 241.755 310.826 242.699 312.775 243.312 314.669
C 244.541 318.467 245.795 322.264 247.074 326.045
C 247.602 327.607 248.197 329.15 248.681 330.724
C 248.864 331.32 248.946 332.189 249.377 332.637
C 252.279 324.787 254.215 316.483 257.272 308.699
C 258.591 308.792 259.976 308.759 261.302 308.707
C 260.994 309.61 260.661 310.512 260.386 311.423
C 257.673 317.635 255.79 324.396 253.489 330.782
C 252.641 333.137 252.083 336.344 250.726 338.429
C 249.791 338.602 248.336 338.876 247.467 338.418
C 245.491 332.796 243.392 327.044 241.72 321.329
C 241.271 319.794 240.592 318.169 240.343 316.594
C 240.221 315.819 240.401 315.077 239.719 314.57
C 238.975 318.277 237.281 321.761 236.032 325.325
C 234.518 329.648 233.345 334.32 231.522 338.509
C 230.849 338.958 228.61 338.901 227.875 338.595
C 226.303 333.124 224.196 327.804 222.38 322.406
C 220.859 317.881 219.651 313.082 217.615 308.759 Z"
opacity="1" fill="rgb(9,61,108)" fill-rule="evenodd" />
<path d="
M 269.23 308.775
C 276.431 309.07 283.688 308.447 290.881 308.796
C 290.749 309.93 290.704 311.451 290.96 312.563
C 290.096 313.17 287.084 312.514 285.987 312.503
C 281.577 312.461 277.13 312.483 272.727 312.697
C 272.908 315.599 272.988 318.727 272.752 321.624
C 278.057 321.68 283.873 320.852 289.117 321.711
C 289.148 322.494 288.833 324.422 289.198 325.021
C 285.339 324.716 281.373 324.862 277.506 324.951
C 275.968 324.986 274.165 324.673 272.692 325.16
C 272.708 328.474 272.567 331.808 272.706 335.117
C 278.641 334.105 285.102 335.075 291.113 334.799
C 291.274 336.093 291.091 337.389 291.139 338.68
C 287.484 338.232 283.686 338.449 280.009 338.447
C 276.489 338.445 272.887 338.221 269.377 338.481
C 268.285 336.818 269.066 332.501 269.085 330.5
C 269.153 323.345 268.466 315.888 269.23 308.775 Z"
opacity="1" fill="rgb(17,66,112)" fill-rule="evenodd" />
<path d="
M 281.197 359.769
C 283.701 359.761 286.206 359.681 288.711 359.691
C 289.172 360.495 288.842 362.059 288.836 362.989
C 288.819 365.491 288.825 367.993 288.827 370.494
C 288.834 376.995 288.844 383.496 288.853 389.996
C 288.857 393.201 288.528 396.615 288.872 399.795
C 286.527 399.766 283.604 400.153 281.333 399.649
C 281.653 386.385 281.096 373.045 281.197 359.769 Z"
opacity="1" fill="rgb(11,22,45)" fill-rule="evenodd" />
<path d="
M 299.458 310.108
C 299.553 309.477 299.528 309.86 299.427 308.955
C 301.236 308.635 303.174 308.93 305.007 308.938
C 310.937 308.964 322.205 307.585 322.419 316.349
C 322.445 317.426 322.357 318.463 321.961 319.475
C 321.479 320.704 320.382 321.951 319.247 322.633
C 318.62 323.01 318.141 322.901 317.651 323.516
C 319.508 324.478 321.148 324.42 322.61 326.195
C 325.999 330.312 323.45 336.251 318.734 337.865
C 312.964 339.84 305.886 338.156 299.903 338.465
C 299.341 337.721 299.537 336.573 299.557 335.654
C 299.596 333.824 299.433 331.993 299.51 330.168
C 299.792 323.507 299.123 316.771 299.458 310.108 Z
M 303.439 312.983
C 303.402 315.849 303.506 318.742 303.351 321.605
C 303.741 321.915 304.507 321.658 304.999 321.664
C 306.334 321.679 307.669 321.667 309.004 321.684
C 310.737 321.706 312.494 321.791 314.221 321.608
C 318.076 321.201 320.078 316.703 317.167 313.845
C 314.795 311.517 309.999 312.481 306.993 312.454
C 305.852 312.444 304.341 312.269 303.439 312.983 Z
M 303.376 325.368
C 303.3 328.614 303.574 331.938 303.249 335.168
C 304.838 335.745 307.647 335.127 309.39 335.12
C 311.334 335.113 313.338 335.234 315.27 334.982
C 319.431 334.441 322.239 330.072 318.549 326.83
C 315.736 324.359 310.376 324.669 306.859 325.043
C 305.677 325.169 304.475 324.764 303.376 325.368 Z"
opacity="1" fill="rgb(10,58,107)" fill-rule="evenodd" />
<path d="
M 301.926 359.777
C 304.513 359.515 307.123 359.76 309.715 359.582
C 309.602 367.38 309.714 375.197 309.744 383
C 309.753 385.164 309.799 387.331 309.756 389.495
C 309.739 390.381 309.485 391.671 309.859 392.463
C 312.819 392.098 316.021 392.371 319.008 392.38
C 322.711 392.391 326.474 392.175 330.169 392.346
C 330.274 394.256 330.696 397.921 329.894 399.671
C 320.703 400.189 311.341 399.422 302.123 399.647
C 301.352 395.279 301.961 390.424 301.967 385.997
C 301.978 377.261 302.034 368.51 301.926 359.777 Z"
opacity="1" fill="rgb(8,20,46)" fill-rule="evenodd" />
<path d="
M 332.374 310.107
C 332.496 309.443 332.457 309.852 332.362 308.875
C 339.665 307.948 347.278 309.649 354.587 308.665
C 354.95 309.408 355.202 311.917 354.72 312.577
C 348.654 312.418 342.222 311.946 336.177 312.541
C 335.963 315.475 336.281 318.481 336.185 321.431
C 336.689 321.972 338.756 321.456 339.496 321.486
C 342.827 321.623 346.17 321.57 349.507 321.583
C 350.355 321.586 352.254 321.313 352.829 321.919
C 352.812 322.602 353.262 324.691 352.873 325.145
C 347.295 325.417 341.671 324.836 336.087 325.177
C 335.638 326.059 335.875 327.475 335.89 328.453
C 335.925 330.642 335.957 332.862 335.869 335.047
C 342.167 334.742 348.486 335.076 354.782 334.76
C 354.953 335.537 355.172 337.819 354.638 338.442
C 347.382 338.156 339.594 337.716 332.368 338.483
C 331.873 334.759 332.321 330.757 332.328 327.001
C 332.338 321.395 332.059 315.703 332.374 310.107 Z"
opacity="1" fill="rgb(13,62,111)" fill-rule="evenodd" />
<path d="
M 338.582 359.642
C 342.214 359.445 345.867 359.507 349.506 359.507
C 355.143 359.505 360.631 359.545 365.59 362.609
C 377.743 370.118 378.925 389.417 365.632 396.59
C 357.691 400.875 347.419 399.983 338.688 399.622
C 338.812 386.296 338.506 372.966 338.582 359.642 Z
M 346.498 368.127
C 345.485 376.013 346.671 384.417 346.507 392.357
C 351.473 391.934 356.85 393.27 361.365 390.562
C 368.284 386.411 369.145 375.677 363.297 370.204
C 360.648 367.725 357.228 367.003 353.709 366.945
C 351.71 366.912 348.173 366.307 346.593 367.63
C 346.561 367.796 346.53 367.961 346.498 368.127 Z"
opacity="1" fill="rgb(8,20,48)" fill-rule="evenodd" />
<path d="
M 363.204 308.708
C 364.405 308.71 365.483 308.657 366.659 308.925
C 373.02 315.992 378.36 324.095 384.218 331.574
C 384.463 331.287 384.265 330.409 384.251 330.026
C 384.204 328.693 384.272 327.334 384.288 325.999
C 384.355 320.266 384.575 314.466 384.245 308.741
C 385.551 308.796 386.849 308.707 388.156 308.823
C 388.978 311.169 388.196 314.996 388.184 317.495
C 388.15 324.417 387.793 331.493 388.251 338.399
C 387.095 338.395 385.857 338.504 384.721 338.272
C 383.299 336.958 382.178 334.821 380.974 333.272
C 377.776 329.156 374.635 324.997 371.434 320.882
C 370.443 319.609 369.473 318.322 368.48 317.052
C 368.295 316.814 367.612 315.641 367.374 315.606
C 367.18 315.577 367.103 315.89 366.968 316.032
C 366.722 319.998 366.92 324.028 366.915 328.003
C 366.91 331.328 366.669 334.815 367.028 338.12
C 366.118 338.378 363.971 338.546 363.154 338.059
C 363.236 328.318 363.731 318.439 363.204 308.708 Z"
opacity="1" fill="rgb(10,59,110)" fill-rule="evenodd" />
<path d="
M 385.727 359.687
C 388.271 359.317 390.945 359.588 393.512 359.625
C 397.843 359.687 402.174 359.7 406.506 359.681
C 409.441 359.668 413.687 358.868 416.463 359.774
C 416.198 361.993 416.028 364.992 416.685 367.145
C 413.75 366.567 410.491 366.896 407.507 366.889
C 403.012 366.88 398.42 366.665 393.938 366.984
C 393.506 367.631 393.732 368.677 393.724 369.451
C 393.703 371.529 393.827 373.653 393.679 375.721
C 395.197 376.018 396.954 375.794 398.505 375.8
C 401.839 375.814 405.173 375.832 408.507 375.843
C 409.862 375.848 411.211 375.851 412.565 375.81
C 412.96 375.798 413.594 375.601 413.88 375.898
C 413.72 378.231 413.869 380.563 413.79 382.896
C 409.098 382.502 404.216 382.886 399.507 382.924
C 397.813 382.938 395.228 382.432 393.677 383.127
C 393.509 386.137 393.836 389.174 393.622 392.182
C 395.216 393.003 398.671 392.333 400.505 392.335
C 405.938 392.341 411.481 392.097 416.896 392.488
C 417.012 394.796 416.853 397.108 416.824 399.42
C 414.519 399.813 411.875 399.445 409.533 399.439
C 404.811 399.427 400.09 399.44 395.368 399.439
C 393.072 399.439 390.777 399.511 388.482 399.568
C 387.633 399.589 386.599 399.874 385.784 399.661
C 386.357 386.363 385.443 372.993 385.727 359.687 Z"
opacity="1" fill="rgb(8,22,48)" fill-rule="evenodd" />
<path d="
M 395.48 308.906
C 401.337 309.173 407.201 309.039 413.061 308.975
C 414.544 308.959 416.026 308.944 417.508 308.924
C 417.983 308.918 418.902 308.742 419.226 309.089
C 419.281 310.254 419.238 311.452 419.442 312.598
C 416.143 312.271 412.201 312.164 408.913 312.699
C 408.702 318.874 408.821 325.082 408.801 331.263
C 408.795 333.023 408.84 334.778 408.876 336.537
C 408.886 337.029 409.174 337.813 409.028 338.275
C 407.851 338.257 406.669 338.356 405.492 338.397
C 404.449 337.514 405.112 333.761 404.994 332.355
C 404.461 326 404.905 319.377 404.91 312.999
C 404.315 312.484 403.142 312.664 402.374 312.662
C 400.024 312.656 397.669 312.646 395.321 312.596
C 394.803 311.618 395.14 310.009 395.002 308.911
C 395.162 308.91 395.321 308.908 395.48 308.906 Z"
opacity="1" fill="rgb(14,60,110)" fill-rule="evenodd" />
<path d="
M 422.838 308.924
C 423.816 308.961 426.012 308.546 426.795 309.158
C 429.413 317.098 432.041 325.063 434.535 333.033
C 435.04 332.764 435.086 331.963 435.227 331.462
C 435.64 330.001 436.157 328.581 436.678 327.155
C 438.233 322.897 439.554 318.54 440.997 314.242
C 441.546 312.608 441.798 310.608 442.666 309.123
C 443.69 309.03 444.709 309.119 445.728 309.027
C 447.057 310.108 447.488 313.391 447.959 315.008
C 449.271 319.515 450.817 324.013 452.391 328.436
C 452.799 329.583 453.099 332.291 453.986 333.082
C 454.594 328.406 456.904 323.528 458.485 319.102
C 459.676 315.767 460.398 312.037 461.917 308.853
C 463.147 308.867 464.453 308.933 465.672 308.806
C 462.028 318.467 458.685 328.45 455.721 338.339
C 454.56 338.57 453.201 338.625 452.024 338.511
C 449.706 332.717 448.163 326.526 446.092 320.625
C 445.601 319.225 445.119 317.874 444.792 316.42
C 444.688 315.961 444.621 315.196 444.065 315.206
C 442.404 320.418 440.642 325.643 438.954 330.869
C 438.21 333.174 437.616 336.266 436.451 338.354
C 435.221 338.396 433.972 338.347 432.743 338.296
C 431.374 336.419 430.91 332.89 430.245 330.654
C 428.882 326.067 427.086 321.541 425.54 317.007
C 424.754 314.703 422.709 311.312 422.838 308.924 Z"
opacity="1" fill="rgb(9,57,105)" fill-rule="evenodd" />
<path d="
M 427.249 359.704
C 430.766 359.267 434.466 359.595 438.009 359.603
C 443.784 359.617 450.563 358.606 455.441 362.433
C 463.186 368.508 461.673 382.282 451.768 385.28
C 455.575 389.546 457.805 395.253 461.583 399.585
C 461.088 399.915 460.086 399.659 459.513 399.647
C 457.844 399.614 456.16 399.636 454.492 399.661
C 453.79 399.672 452.997 399.899 452.361 399.557
C 450.074 394.931 446.398 390.722 443.622 386.358
C 440.86 386.185 437.971 386.559 435.201 386.65
C 435.058 390.867 434.698 395.258 434.889 399.462
C 433.102 399.409 431.292 399.388 429.504 399.438
C 428.806 399.457 428.028 399.739 427.356 399.518
C 428.098 386.343 427.218 372.906 427.249 359.704 Z
M 435.448 366.99
C 435.362 367.069 435.276 367.147 435.19 367.225
C 435.045 371.229 435.305 375.257 435.104 379.254
C 438.188 379.458 441.318 379.383 444.408 379.336
C 446.042 379.312 447.93 379.345 449.412 378.57
C 453.531 376.416 453.639 369.82 449.417 367.626
C 447.798 366.785 445.75 366.86 443.977 366.85
C 441.145 366.832 438.272 366.768 435.448 366.99 Z"
opacity="1" fill="rgb(8,20,48)" fill-rule="evenodd" />
<path d="
M 471.514 360.598
C 471.58 359.953 471.481 360.324 472.003 359.556
C 474.655 359.578 477.842 358.932 480.425 359.441
C 481.018 361.418 482.645 363.29 483.715 365.052
C 486.415 369.498 489.71 373.793 491.924 378.507
C 492.957 377.37 493.577 375.782 494.399 374.485
C 496.429 371.283 498.52 368.113 500.478 364.868
C 501.506 363.163 502.365 361.102 503.693 359.617
C 506.659 359.542 509.637 359.576 512.602 359.615
C 512.915 369.719 512.647 379.883 512.633 389.996
C 512.629 392.492 512.577 394.997 512.634 397.491
C 512.646 398.021 512.899 399.54 512.497 399.913
C 509.912 399.748 507.212 400.035 504.655 399.696
C 504.73 393.639 504.641 387.564 504.631 381.503
C 504.626 378.404 505.007 375.09 504.668 372.02
C 501.218 375.866 498.587 381.026 495.757 385.363
C 494.728 386.94 493.757 388.555 492.693 390.108
C 492.521 390.359 491.767 391.93 491.487 391.697
C 488.629 386.719 485.321 382.013 482.389 377.08
C 481.657 375.848 480.911 374.628 480.128 373.43
C 479.868 373.033 479.814 372.269 479.34 372.245
C 478.963 372.226 479.204 374.235 479.214 374.472
C 479.311 376.776 479.147 379.135 479.117 381.443
C 479.039 387.429 478.296 393.697 478.835 399.66
C 476.462 399.699 474.081 399.597 471.705 399.63
C 470.9 395.119 471.597 390.046 471.618 385.47
C 471.656 377.18 471.496 368.886 471.514 360.598 Z"
opacity="1" fill="rgb(9,20,49)" fill-rule="evenodd" />
<path d="
M 472.738 308.802
C 473.997 308.865 475.257 308.793 476.516 308.891
C 477.18 316.285 476.607 324.046 476.639 331.498
C 476.647 333.311 476.685 335.122 476.712 336.934
C 476.716 337.203 476.893 338.331 476.638 338.444
C 475.384 338.386 474.123 338.386 472.867 338.376
C 472.275 334.742 472.704 330.679 472.713 327.002
C 472.728 320.948 472.512 314.85 472.738 308.802 Z"
opacity="1" fill="rgb(11,58,96)" fill-rule="evenodd" />
<path d="
M 484.941 321.093
C 485.603 318.189 486.603 315.24 488.652 312.994
C 494.898 306.145 505.14 307.489 511.352 313.513
C 510.62 314.39 509.365 316.032 508.095 315.966
C 506.847 314.503 505.525 313.349 503.759 312.556
C 497.074 309.558 490.047 314.814 488.711 321.443
C 487.716 326.381 490.091 331.721 494.455 334.268
C 495.956 335.145 497.731 335.613 499.466 335.643
C 501.712 335.68 503.855 334.919 505.755 333.76
C 506.754 333.15 507.54 332.213 508.646 331.814
C 509.37 332.259 510.705 333.105 510.939 333.946
C 509.951 335.373 507.856 336.46 506.346 337.25
C 495.357 342.998 482.63 333.141 484.941 321.093 Z"
opacity="1" fill="rgb(13,60,107)" fill-rule="evenodd" />
<path d="
M 517.994 320.619
C 518.374 316.93 518.425 312.792 518.026 309.108
C 519.148 308.915 520.788 308.609 521.895 308.975
C 521.716 314.068 521.461 319.335 521.791 324.422
C 522.67 324.623 523.154 323.654 523.733 323.103
C 525.117 321.785 526.442 320.415 527.796 319.066
C 529.94 316.931 532.227 314.944 534.331 312.766
C 535.391 311.667 536.554 309.818 537.903 309.096
C 539.112 308.449 541.679 308.859 543.007 308.89
C 542.278 310.555 540.224 311.8 538.892 312.989
C 535.851 315.701 532.996 318.62 530.028 321.389
C 530.179 322.895 532.848 325.068 533.867 326.267
C 537.247 330.25 540.67 334.288 543.944 338.344
C 543.86 338.688 542.854 338.425 542.628 338.395
C 541.326 338.22 539.955 338.646 538.668 338.337
C 535.991 334.778 533.197 331.339 530.408 327.854
C 529.453 326.66 528.594 325.044 527.523 323.999
C 525.251 325.061 523.442 327.817 521.55 329.487
C 521.187 330.41 521.543 331.533 521.606 332.511
C 521.729 334.397 521.646 336.316 521.873 338.193
C 520.588 338.202 519.283 338.401 518.003 338.26
C 517.907 332.416 517.666 326.458 517.994 320.619 Z"
opacity="1" fill="rgb(14,60,104)" fill-rule="evenodd" />
<path d="
M 522.27 399.717
C 524.377 396.007 525.935 391.807 527.632 387.888
C 531.712 378.462 535.549 368.708 540.063 359.496
C 542.082 358.828 545.324 359.284 547.446 359.422
C 551.017 368.548 555.452 377.493 559.423 386.46
C 560.81 389.592 562.221 392.712 563.562 395.866
C 564.062 397.043 565.029 398.484 565.289 399.716
C 563.265 399.588 561.209 399.629 559.181 399.657
C 558.451 399.667 557.457 399.924 556.804 399.573
C 556.042 396.689 554.719 393.659 553.443 390.965
C 552.6 390.241 550.142 390.675 549.004 390.661
C 545.337 390.618 541.671 390.589 538.004 390.601
C 536.979 390.604 534.818 390.265 534.027 390.895
C 532.658 393.741 531.753 396.856 530.253 399.634
C 528.044 399.866 524.4 400.269 522.27 399.717 Z
M 537.403 383.087
C 537.308 383.319 537.212 383.55 537.117 383.782
C 541.416 383.379 545.99 383.401 550.296 383.676
C 550.114 382.635 549.296 381.534 548.853 380.573
C 547.857 378.415 546.91 376.241 546.042 374.029
C 545.52 372.699 544.899 371.408 544.353 370.091
C 544.198 369.719 544.154 368.525 543.619 368.962
C 542.118 373.702 539.749 378.702 537.403 383.087 Z"
opacity="1" fill="rgb(8,18,47)" fill-rule="evenodd" />
<path d="
M 548.489 310.098
C 548.587 309.527 548.517 309.899 548.727 308.99
C 549.416 308.949 551.819 308.45 552.232 309.073
C 552.542 317.681 552.255 326.322 552.446 334.936
C 555.728 334.495 559.201 334.784 562.507 334.775
C 564.444 334.769 566.68 334.401 568.577 334.752
C 568.632 335.971 568.655 337.181 568.563 338.391
C 562.096 337.963 555.449 338.228 548.974 338.406
C 548.424 337.921 548.603 337.203 548.592 336.502
C 548.563 334.67 548.563 332.835 548.571 331.002
C 548.601 324.04 548.386 317.054 548.489 310.098 Z"
opacity="1" fill="rgb(12,58,99)" fill-rule="evenodd" />
<path d="
M 573.773 308.837
C 575.022 308.9 576.345 308.643 577.574 308.868
C 577.982 313.899 577.365 319.079 577.567 324.133
C 577.657 326.409 577.43 328.657 578.479 330.764
C 581.42 336.675 590.004 336.937 593.066 331.019
C 594.36 328.516 594.019 325.536 594.001 322.81
C 593.971 318.236 594.221 313.521 593.885 308.972
C 595.203 308.974 596.52 308.934 597.835 308.97
C 597.539 313.779 597.824 318.687 597.819 323.508
C 597.816 326.418 597.941 329.399 596.675 332.1
C 592.871 340.216 580.067 341.231 575.566 333.193
C 573.834 330.099 573.889 326.549 573.851 323.101
C 573.799 318.354 573.69 313.582 573.773 308.837 Z"
opacity="1" fill="rgb(13,59,102)" fill-rule="evenodd" />
<path d="
M 574.67 359.649
C 576.452 359.303 578.279 359.547 580.083 359.44
C 580.776 359.399 581.763 359.172 582.36 359.563
C 583.209 361.419 584.873 362.979 586.097 364.6
C 589.031 368.483 592.122 372.242 595.104 376.087
C 596.912 378.418 598.717 380.749 600.487 383.107
C 601.159 384.002 601.694 385.239 602.523 385.977
C 602.157 377.286 602.732 368.44 602.74 359.716
C 604.978 359.453 608.387 359.032 610.515 359.756
C 610.328 368.635 610.571 377.587 610.564 386.494
C 610.562 389.495 610.584 392.496 610.597 395.498
C 610.603 396.777 610.392 398.439 610.704 399.669
C 608.553 399.282 606.107 399.62 603.928 399.698
C 601.917 398.271 600.466 395.316 598.943 393.375
C 595.231 388.644 591.536 383.891 587.723 379.241
C 586.431 377.665 585.238 376.004 583.993 374.391
C 583.571 373.843 583.453 372.623 582.768 372.717
C 582.519 372.751 582.674 374.446 582.682 374.54
C 582.809 376.011 582.7 377.514 582.668 378.993
C 582.522 385.784 581.743 392.916 582.344 399.684
C 579.806 399.742 577.232 399.629 574.688 399.64
C 574.437 394.121 574.726 388.534 574.721 383.004
C 574.713 375.221 574.502 367.429 574.67 359.649 Z"
opacity="1" fill="rgb(7,18,47)" fill-rule="evenodd" />
<path d="
M 607.506 310.096
C 607.524 309.909 607.542 309.722 607.559 309.534
C 608.557 308.824 609.864 308.689 611.048 309.147
C 615.083 314.442 619.361 319.612 623.564 324.78
C 625.429 327.072 626.937 329.769 628.922 331.94
C 629.352 329.824 628.67 326.729 628.658 324.504
C 628.629 319.333 628.95 314.042 628.565 308.89
C 629.765 308.941 630.966 308.85 632.165 308.936
C 632.468 309.426 632.264 310.425 632.276 310.999
C 632.318 312.994 632.258 314.997 632.258 316.993
C 632.257 323.972 631.637 331.321 632.346 338.259
C 631.291 338.271 629.777 338.646 628.827 338.159
C 625.697 332.725 621.205 327.455 617.228 322.608
C 615.684 320.727 614.121 318.813 612.653 316.876
C 612.28 316.384 611.65 314.833 611.148 315.415
C 611.805 320.325 611.337 325.539 611.403 330.496
C 611.426 332.247 611.436 333.999 611.462 335.75
C 611.47 336.276 611.435 336.801 611.497 337.324
C 611.511 337.445 611.681 338.33 611.548 338.333
C 610.325 338.354 609.102 338.355 607.879 338.403
C 607.023 336.273 607.626 332.864 607.557 330.562
C 607.353 323.756 607.264 316.901 607.506 310.096 Z"
opacity="1" fill="rgb(14,61,106)" fill-rule="evenodd" />
<path d="
M 624.281 359.34
C 626.678 359.518 629.177 359.514 631.572 359.311
C 634.779 363.127 637.656 367.355 640.705 371.323
C 644.468 376.22 648.521 380.934 652.183 385.9
C 651.802 383.419 652.184 380.519 652.217 378.002
C 652.297 371.919 652.533 365.728 652.207 359.654
C 654.03 359.505 655.871 359.545 657.7 359.539
C 658.448 359.536 659.461 359.394 659.979 359.936
C 659.627 369.264 659.914 378.673 659.912 388.011
C 659.912 391.755 660.236 395.652 659.9 399.378
C 657.661 399.245 655.459 399.482 653.235 399.544
C 651.465 398.183 650.029 395.502 648.585 393.751
C 645.154 389.589 641.961 385.241 638.586 381.035
C 637.097 379.179 635.602 377.314 634.244 375.358
C 633.748 374.644 633.256 373.923 632.735 373.227
C 632.581 373.022 632.407 372.405 632.266 372.618
C 632.226 372.677 632.259 374.13 632.271 374.517
C 632.311 375.84 632.175 377.168 632.168 378.494
C 632.144 383.494 632.175 388.495 632.131 393.495
C 632.119 394.902 632.537 398.369 631.756 399.502
C 629.24 399.629 626.717 399.511 624.201 399.608
C 623.715 392.297 624.147 384.833 624.124 377.504
C 624.105 371.554 623.56 365.248 624.281 359.34 Z"
opacity="1" fill="rgb(8,19,48)" fill-rule="evenodd" />
<path d="
M 640.967 320.593
C 641.786 317.926 642.642 315.389 644.538 313.257
C 650.256 306.825 659.736 307.11 666.196 312.125
C 665.86 313.254 664.846 314.331 663.939 315.046
C 663.042 314.751 662.235 313.642 661.377 313.14
C 659.549 312.074 657.468 311.835 655.386 311.899
C 653.168 311.966 651.063 312.537 649.239 313.824
C 642.364 318.674 643.137 330.054 650.173 334.306
C 653.25 336.166 657.204 336.298 660.576 335.246
C 661.654 334.909 663.197 334.404 663.885 333.449
C 664.202 331.033 664.197 328.162 664.102 325.72
C 661.288 325.244 658.124 325.613 655.273 325.675
C 654.991 324.485 655.114 323.279 655.026 322.066
C 658.017 322.012 661.008 322.097 664 322.074
C 665.052 322.065 666.631 321.768 667.548 322.273
C 667.887 324.701 667.566 327.312 667.594 329.763
C 667.612 331.349 667.931 333.178 667.519 334.722
C 661.717 339.987 651.479 340.502 645.569 335.207
C 643.128 333.02 641.647 329.899 640.975 326.737
C 640.551 324.737 640.517 322.593 640.967 320.593 Z"
opacity="1" fill="rgb(19,61,105)" fill-rule="evenodd" />

</svg>